# xmcd CD database file
#
# Track frame offsets:
#	150
#	12786
#	28305
#	38603
#	50141
#	67851
#	81483
#	88946
#	105859
#	119376
#	138197
#
# Disc length: 1983 seconds
#
# Revision: 2
# Processed by: cddbd v1.4PL0 Copyright (c) Steve Scherf et al.
# Submitted via: CDex 1.40Release
#
DISCID=8a07bd0b
DTITLE=Waylon Jennins, Jessie Colter, Willie Nelson, Tompaul Glacer - WANTED! THE OUTLAWS
DYEAR=1976
DGENRE=Country
TTITLE0=My Heroes Have Always Been Cowboys
TTITLE1=Honky Tonk Heroes
TTITLE2=I'm Looking For Blue Eyes
TTITLE3=You Mean To Say
TTITLE4=Suspicious Minds
TTITLE5=Good Hearted Woman
TTITLE6=Heaven Or Hell
TTITLE7=Me and Paul
TTITLE8=Yeaterday's Wine
TTITLE9=T For Texas
TTITLE10=Put Another Log On The Fire
EXTD=YEAR: 1976 ID3G: 2
EXTT0=
EXTT1=
EXTT2=
EXTT3=
EXTT4=
EXTT5=
EXTT6=
EXTT7=
EXTT8=
EXTT9=
EXTT10=
PLAYORDER=
